<svg width="150" height="33" viewBox="0 0 150 33" fill="none" xmlns="http://www.w3.org/2000/svg">
<path d="M11.4604 32.2798C9.50405 32.2798 7.74955 32.0122 6.19599 31.478C4.64425 30.9439 3.35098 30.2414 2.31619 29.3708C1.28322 28.501 0.511461 27.5448 0 26.5022L1.99835 24.0603H2.53173C4.45793 27.3288 7.43446 28.9625 11.4604 28.9625C13.8003 28.9625 15.5411 28.4716 16.6809 27.4878C17.8226 26.5022 18.3943 25.1323 18.3943 23.3763C18.3943 22.3493 18.2053 21.4786 17.8281 20.7652C17.4527 20.0517 16.8326 19.443 15.9686 18.9374C15.1036 18.4299 13.9273 17.9904 12.4395 17.6171L8.80444 16.7198C6.09552 16.0633 4.09991 15.017 2.81669 13.5828C1.53256 12.1485 0.891404 10.3336 0.891404 8.13623C0.891404 6.57968 1.28779 5.1923 2.08238 3.97317C2.87606 2.75221 4.03872 1.7997 5.57127 1.11567C7.10292 0.429794 8.93231 0.0859375 11.0585 0.0859375C13.3966 0.0859375 15.3694 0.418761 16.9769 1.08257C18.5861 1.7473 19.8739 2.74301 20.8384 4.06879L19.0519 6.48866H18.5222C17.6281 5.39089 16.5713 4.5855 15.3511 4.07247C14.1328 3.5576 12.7025 3.30017 11.0585 3.30017C8.90308 3.30017 7.27554 3.72126 6.17772 4.56159C5.07899 5.40285 4.53009 6.56589 4.53009 8.05165C4.53009 9.46385 4.93286 10.5883 5.73933 11.424C6.54762 12.2579 7.90938 12.9024 9.82371 13.3584L13.5464 14.2595C16.564 14.9729 18.7496 16.0679 20.1041 17.5436C21.4576 19.0201 22.1353 20.9067 22.1353 23.2034C22.1353 24.9742 21.7417 26.5408 20.9553 27.9034C20.168 29.2669 18.9734 30.3371 17.3714 31.114C15.7713 31.8908 13.8003 32.2798 11.4604 32.2798Z" fill="white"/>
<path d="M32.8718 31.8299H29.2148V0.537109H32.8718V31.8299Z" fill="white"/>
<path d="M53.9441 32.2798C51.3357 32.2798 49.035 31.6803 47.043 30.4814C45.0502 29.2825 43.4939 27.4786 42.3741 25.068C41.2562 22.6554 40.6973 19.694 40.6973 16.1828C40.6973 12.6744 41.2946 9.71393 42.491 7.30141C43.6893 4.8889 45.3516 3.08319 47.4778 1.88429C49.604 0.685388 52.0563 0.0859375 54.8355 0.0859375C57.8139 0.0859375 60.2588 0.625627 62.1713 1.70409C64.0857 2.78071 65.4392 4.38874 66.2338 6.52911L63.8518 7.94499H63.3221C62.5129 6.31765 61.4206 5.15001 60.0451 4.44391C58.6715 3.73781 56.9343 3.38476 54.8355 3.38476C48.0185 3.38476 44.6099 7.65079 44.6099 16.1828C44.6099 20.6208 45.4666 23.8608 47.1819 25.9028C48.8962 27.9429 51.2991 28.9625 54.3898 28.9625C57.2248 28.9625 59.3473 28.3144 60.7575 27.0171C62.1677 25.718 62.8728 23.6695 62.8728 20.8718V18.1099H54.0281V15.1568H66.4238V31.8311H63.0445V27.6349L62.5988 27.5283C61.7749 29.1418 60.6296 30.3371 59.161 31.114C57.6942 31.8908 55.9553 32.2798 53.9441 32.2798Z" fill="white"/>
<path d="M77.9923 31.8299H74.6094V0.537109H80.0309L89.4527 27.0343H89.8984L99.3166 0.537109H104.548V31.8299H101.085V6.29257L100.551 6.20799L91.367 31.8299H87.7284L78.5221 6.20799L77.9923 6.29257V31.8299Z" fill="white"/>
<path d="M137.252 31.8299H133.34L130.468 23.2464H117.221L114.328 31.8299H110.503L121.346 0.537109H126.406L137.252 31.8299ZM123.578 4.32505L118.241 20.1645H129.427L124.111 4.32505H123.578Z" fill="white"/>
<path d="M149.999 27.3442C149.999 28.0605 149.838 28.6921 149.513 29.2382C149.19 29.7825 148.702 30.2082 148.052 30.5143C147.4 30.8214 146.598 30.974 145.648 30.974C144.701 30.974 143.902 30.8104 143.252 30.4812C142.6 30.153 142.111 29.6979 141.787 29.1168C141.463 28.5339 141.301 27.8619 141.301 27.1015C141.301 26.2851 141.447 25.6158 141.739 25.0935C142.03 24.5695 142.463 24.198 143.04 23.9792L143.423 24.6302V24.7773C142.983 24.9979 142.667 25.2976 142.477 25.6746C142.287 26.0497 142.192 26.526 142.192 27.1015C142.192 28.9679 143.345 29.9002 145.648 29.9002C146.849 29.9002 147.726 29.6666 148.279 29.1978C148.829 28.727 149.104 28.0687 149.104 27.2229C149.104 26.446 148.929 25.8649 148.578 25.4797C148.227 25.0926 147.674 24.8986 146.916 24.8986H146.171V27.3222H145.371V23.9277H149.879V24.8545H148.746L148.717 24.9759C149.154 25.202 149.476 25.5155 149.685 25.9173C149.894 26.3173 149.999 26.7926 149.999 27.3442Z" fill="white"/>
<path d="M150 18.5781C150 19.6225 149.737 20.4132 149.211 20.9501C148.685 21.4852 147.906 21.7519 146.873 21.7519H141.422V20.7552H146.858C147.599 20.7552 148.154 20.5769 148.524 20.2183C148.895 19.8579 149.079 19.3118 149.079 18.5781C149.079 17.1273 148.339 16.4009 146.858 16.4009H141.422V15.4043H146.873C147.906 15.4043 148.685 15.6728 149.211 16.2097C149.737 16.7448 150 17.5336 150 18.5781Z" fill="white"/>
<path d="M149.879 10.0337V11.0303H146.558L141.422 13.9724V12.8765L145.386 10.5816V10.4382L141.422 8.15808V7.08789L146.558 10.0337H149.879Z" fill="white"/>
<path d="M149.999 3.15808C149.999 3.69501 149.927 4.17586 149.784 4.5997C149.638 5.02447 149.448 5.37844 149.214 5.66253C148.978 5.94755 148.72 6.15901 148.439 6.29876L147.778 5.75079V5.60369C148.662 5.07687 149.104 4.26136 149.104 3.15808C149.104 2.51817 148.972 2.04284 148.706 1.73116C148.438 1.41765 148.069 1.26043 147.595 1.26043C147.318 1.26043 147.083 1.31192 146.89 1.41489C146.696 1.51786 146.53 1.68887 146.393 1.92608C146.257 2.16144 146.14 2.48323 146.039 2.88961L145.794 3.88624C145.617 4.62912 145.334 5.17617 144.947 5.52646C144.56 5.87767 144.069 6.05236 143.474 6.05236C143.053 6.05236 142.678 5.94479 142.349 5.72873C142.02 5.51083 141.764 5.1918 141.578 4.77255C141.394 4.3533 141.301 3.85223 141.301 3.26841C141.301 2.6285 141.391 2.08973 141.571 1.65026C141.749 1.20894 142.017 0.855891 142.375 0.591103L143.029 1.08023V1.22365C142.732 1.46913 142.514 1.75966 142.375 2.09525C142.236 2.42899 142.167 2.81974 142.167 3.26841C142.167 3.85958 142.282 4.30549 142.51 4.60706C142.737 4.90678 143.051 5.05572 143.453 5.05572C143.835 5.05572 144.139 4.9454 144.366 4.72474C144.591 4.50408 144.763 4.13172 144.885 3.60675L145.129 2.58805C145.322 1.76242 145.618 1.16389 146.017 0.793372C146.417 0.421014 146.927 0.234375 147.548 0.234375C148.026 0.234375 148.449 0.342864 148.819 0.558005C149.187 0.774065 149.476 1.10137 149.685 1.53993C149.894 1.9794 149.999 2.51817 149.999 3.15808Z" fill="white"/>
</svg>
